<svg width="24" height="24" viewBox="0 0 24 24" fill="none" xmlns="http://www.w3.org/2000/svg">
<path d="M22.8934 11.0599L18.2141 15.0976L19.6397 21.136C19.7183 21.4638 19.6981 21.8075 19.5815 22.1238C19.4649 22.4401 19.2571 22.7147 18.9845 22.913C18.7119 23.1113 18.3866 23.2244 18.0498 23.2379C17.713 23.2514 17.3797 23.1648 17.0921 22.989L11.8409 19.7572L6.58653 22.989C6.29894 23.1638 5.96606 23.2496 5.62981 23.2355C5.29356 23.2215 4.96897 23.1083 4.69693 22.9102C4.42488 22.7121 4.21753 22.4379 4.10099 22.1222C3.98446 21.8065 3.96394 21.4633 4.04203 21.136L5.47286 15.0976L0.793558 11.0599C0.539106 10.84 0.355082 10.55 0.264467 10.2261C0.173853 9.90222 0.180664 9.55882 0.28405 9.23879C0.387437 8.91876 0.582816 8.63627 0.845788 8.42662C1.10876 8.21697 1.42767 8.08943 1.76269 8.05995L7.89777 7.56498L10.2645 1.83752C10.3926 1.52538 10.6106 1.25838 10.8908 1.07047C11.1711 0.88256 11.5009 0.782227 11.8383 0.782227C12.1757 0.782227 12.5055 0.88256 12.7857 1.07047C13.0659 1.25838 13.284 1.52538 13.4121 1.83752L15.7777 7.56498L21.9128 8.05995C22.2485 8.08834 22.5683 8.21516 22.8322 8.42452C23.0962 8.63389 23.2924 8.91648 23.3965 9.2369C23.5005 9.55732 23.5077 9.90131 23.4171 10.2258C23.3264 10.5503 23.1421 10.8408 22.8871 11.0609L22.8934 11.0599Z" fill="#3C3B3A"/>
</svg>
