<svg width="16" height="16" viewBox="0 0 16 16" fill="none" xmlns="http://www.w3.org/2000/svg">
<path d="M13.625 10.6559L11.5676 10.421C11.3257 10.3926 11.0804 10.4194 10.8504 10.4993C10.6203 10.5793 10.4113 10.7104 10.2392 10.8827L8.74878 12.3731C6.44934 11.2036 4.58034 9.33464 3.41088 7.0352L4.90938 5.5367C5.25768 5.1884 5.42778 4.7024 5.37108 4.2083L5.13618 2.1671C5.09025 1.77196 4.90062 1.40751 4.60339 1.14314C4.30615 0.878761 3.92207 0.732927 3.52428 0.7334H2.12298C1.20768 0.7334 0.446276 1.4948 0.502976 2.4101C0.932276 9.3275 6.46458 14.8517 13.3739 15.281C14.2892 15.3377 15.0506 14.5763 15.0506 13.661V12.2597C15.0587 11.4416 14.4431 10.7531 13.625 10.6559Z" fill="white"/>
</svg>
